<?xml version="1.0" encoding="UTF-8" standalone="no"?><!-- Generator: Gravit.io --><svg xmlns="http://www.w3.org/2000/svg" xmlns:xlink="http://www.w3.org/1999/xlink" style="isolation:isolate" viewBox="0 0 585 80" width="585pt" height="80pt"><defs><clipPath id="_clipPath_j2PQY7dBIGRSVLyd9N7wrpp1ZcjkRNuX"><rect width="585" height="80"/></clipPath></defs><g clip-path="url(#_clipPath_j2PQY7dBIGRSVLyd9N7wrpp1ZcjkRNuX)"><rect x="0" y="0" width="585" height="80" transform="matrix(1,0,0,1,0,0)" fill="none"/><g><g><g><path d=" M 14.761 45.537 C 15.328 43.586 15.642 42.589 15.103 39.82 C 13.997 34.212 11.319 30.176 20.415 26.033 C 22.341 24.903 23.908 23.252 24.936 21.269 C 26.14 18.816 29.484 17.351 32.423 18.24 C 34.768 18.95 35.838 18.106 37.528 17.674 C 38.426 17.449 43.163 16.82 46.408 20.874 C 49.212 24.379 50.704 25.925 53.724 27.138 C 56.933 28.433 59.665 31.21 57.993 36.576 C 56.933 39.991 56.303 40.467 57.094 42.265 C 57.696 43.631 60.806 53.23 53.167 55.747 C 49.994 56.798 50.201 55.396 46.92 58.713 C 43.145 62.524 34.292 63.584 30.382 61.319 C 25.223 58.335 26.518 58.398 23.12 58.263 C 17.125 58.012 12.748 52.448 14.761 45.528 L 14.761 45.537 Z " fill-rule="evenodd" fill="rgb(227,17,76)"/><clipPath id="_clipPath_xt3vlOwxbUe0bWJkS8sjFMgZ2tKDvRVt"><path d=" M 14.761 45.537 C 15.328 43.586 15.642 42.589 15.103 39.82 C 13.997 34.212 11.319 30.176 20.415 26.033 C 22.341 24.903 23.908 23.252 24.936 21.269 C 26.14 18.816 29.484 17.351 32.423 18.24 C 34.768 18.95 35.838 18.106 37.528 17.674 C 38.426 17.449 43.163 16.82 46.408 20.874 C 49.212 24.379 50.704 25.925 53.724 27.138 C 56.933 28.433 59.665 31.21 57.993 36.576 C 56.933 39.991 56.303 40.467 57.094 42.265 C 57.696 43.631 60.806 53.23 53.167 55.747 C 49.994 56.798 50.201 55.396 46.92 58.713 C 43.145 62.524 34.292 63.584 30.382 61.319 C 25.223 58.335 26.518 58.398 23.12 58.263 C 17.125 58.012 12.748 52.448 14.761 45.528 L 14.761 45.537 Z " fill-rule="evenodd" fill="rgb(255,255,255)"/></clipPath><g clip-path="url(#_clipPath_xt3vlOwxbUe0bWJkS8sjFMgZ2tKDvRVt)"><g><path d=" M 16.388 44.539 C 16.954 42.598 17.269 41.6 16.73 38.823 C 15.615 33.223 12.946 29.188 22.042 25.044 C 23.967 23.914 25.534 22.263 26.562 20.281 C 27.767 17.818 31.11 16.362 34.049 17.252 C 36.395 17.953 37.465 17.108 39.154 16.685 C 40.044 16.461 44.79 15.832 48.035 19.876 C 50.839 23.381 52.331 24.936 55.351 26.15 C 58.559 27.444 61.292 30.212 59.62 35.578 C 58.559 38.993 57.921 39.479 58.721 41.267 C 59.323 42.633 62.433 52.233 54.793 54.749 C 51.621 55.801 51.827 54.408 48.547 57.715 C 44.772 61.526 35.919 62.596 32.009 60.322 C 26.85 57.338 28.144 57.41 24.747 57.266 C 18.752 57.023 14.375 51.451 16.388 44.539 Z " fill-rule="evenodd" fill="rgb(239,34,92)"/></g></g><path d=" M 41.473 18.968 C 42.246 19.049 44.583 19.211 45.581 22.348 C 46.192 24.307 44.188 24.388 43.424 22.671 C 43.005 21.794 42.25 21.123 41.33 20.811 C 39.217 20.065 40.134 18.843 41.473 18.968 Z  M 54.713 29.233 C 55.189 29.304 56.645 29.484 57.184 32.037 C 57.517 33.628 56.267 33.655 55.836 32.252 C 55.639 31.592 55.186 31.039 54.578 30.716 C 53.274 30.059 53.877 29.098 54.713 29.233 Z  M 52.987 28.433 C 53.256 28.478 53.436 28.738 53.382 28.999 C 53.337 29.268 53.086 29.448 52.825 29.403 C 52.579 29.337 52.423 29.096 52.465 28.845 C 52.507 28.593 52.733 28.415 52.987 28.433 Z " fill-rule="evenodd" fill="rgb(245,117,153)"/><radialGradient id="_rgradient_0" fx="0.5" fy="0.5" cx="0.5" cy="0.5" r="1" gradientTransform="matrix(9.851,0,0,10.012,40.763,33.691)" gradientUnits="userSpaceOnUse"><stop offset="0%" stop-opacity="1" style="stop-color:rgb(29,29,29)"/><stop offset="100%" stop-opacity="1" style="stop-color:rgb(0,0,0)"/></radialGradient><ellipse vector-effect="non-scaling-stroke" cx="45.68867767900167" cy="38.69677695043663" rx="4.925355466722529" ry="5.006246341176002" fill="url(#_rgradient_0)"/><path d=" M 45.689 32.936 C 45.689 34.49 46.021 37.079 46.65 37.717 C 47.28 38.355 49.823 38.706 51.36 38.706 C 49.832 38.706 47.28 39.038 46.65 39.676 C 46.021 40.306 45.689 42.903 45.689 44.458 C 45.689 42.903 45.356 40.315 44.727 39.676 C 44.098 39.038 41.554 38.697 40.017 38.697 C 41.545 38.697 44.098 38.355 44.727 37.717 C 45.356 37.088 45.689 34.499 45.689 32.936 Z " fill-rule="evenodd" fill="rgb(255,255,255)"/><radialGradient id="_rgradient_1" fx="0.5" fy="0.5" cx="0.5" cy="0.5" r="1" gradientTransform="matrix(9.851,0,0,10.012,21.709,33.691)" gradientUnits="userSpaceOnUse"><stop offset="0%" stop-opacity="1" style="stop-color:rgb(29,29,29)"/><stop offset="100%" stop-opacity="1" style="stop-color:rgb(0,0,0)"/></radialGradient><ellipse vector-effect="non-scaling-stroke" cx="26.634382807739485" cy="38.69677695043663" rx="4.925355466722529" ry="5.006246341176002" fill="url(#_rgradient_1)"/><path d=" M 26.634 32.936 C 26.634 34.49 26.967 37.079 27.596 37.717 C 28.225 38.355 30.769 38.706 32.306 38.706 C 30.769 38.706 28.225 39.038 27.596 39.676 C 26.967 40.306 26.634 42.903 26.634 44.458 C 26.634 42.903 26.293 40.315 25.673 39.676 C 25.044 39.038 22.5 38.697 20.963 38.697 C 22.491 38.697 25.044 38.355 25.673 37.717 C 26.302 37.088 26.634 34.499 26.634 32.936 Z " fill-rule="evenodd" fill="rgb(255,255,255)"/><path d=" M 42.498 43.883 L 42.678 44.072 L 42.678 44.161 C 42.682 44.319 42.664 44.476 42.624 44.629 C 42.47 45.136 42.162 45.582 41.743 45.905 C 41.101 46.459 40.347 46.867 39.532 47.1 C 39.105 47.254 38.666 47.374 38.22 47.46 L 38.058 47.496 C 37.763 47.552 37.466 47.597 37.168 47.631 L 36.925 47.649 L 36.674 47.667 L 36.377 47.685 C 36.204 47.693 36.03 47.693 35.856 47.685 L 35.568 47.685 L 34.84 47.622 L 34.661 47.595 C 34.45 47.565 34.24 47.529 34.031 47.487 L 33.798 47.433 C 33.341 47.325 32.891 47.189 32.45 47.029 C 32.234 46.939 32 46.84 31.784 46.732 L 31.542 46.597 C 31.164 46.385 30.809 46.135 30.481 45.851 C 30.27 45.652 30.083 45.429 29.924 45.186 C 29.723 44.856 29.623 44.475 29.636 44.09 L 29.636 44.072 L 29.816 43.892 L 29.996 44.072 C 30.003 44.126 30.015 44.181 30.032 44.233 L 30.095 44.413 C 30.218 44.675 30.403 44.903 30.634 45.078 L 30.841 45.231 C 31.29 45.528 31.793 45.707 32.306 45.86 L 32.836 45.995 L 33.061 46.04 C 33.376 46.105 33.694 46.156 34.013 46.193 C 34.085 46.193 34.148 46.211 34.22 46.22 L 34.58 46.247 L 34.957 46.274 L 35.622 46.31 L 35.883 46.31 L 36.153 46.318 L 36.881 46.318 C 37.193 46.315 37.504 46.3 37.815 46.274 L 38.049 46.256 C 38.6 46.202 39.146 46.112 39.685 45.986 C 40.233 45.849 40.764 45.65 41.267 45.393 L 41.455 45.267 C 41.671 45.132 41.869 44.961 42.031 44.755 C 42.178 44.566 42.277 44.344 42.318 44.107 L 42.318 44.072 L 42.498 43.892 L 42.498 43.883 Z  M 44.412 28.361 L 47.882 29.313 L 48.286 29.628 L 48.358 30.149 L 48.035 30.572 L 47.522 30.644 L 44.053 29.691 L 43.648 29.367 L 43.577 28.846 L 43.9 28.424 C 44.071 28.406 44.242 28.316 44.412 28.361 Z  M 28.423 28.424 L 28.747 28.837 L 28.675 29.367 L 28.27 29.682 L 24.792 30.644 L 24.289 30.572 L 23.965 30.158 L 24.037 29.637 L 24.441 29.313 L 27.911 28.361 L 28.423 28.424 Z " fill="rgb(46,13,25)"/><ellipse vector-effect="non-scaling-stroke" cx="51.93525076179753" cy="44.637762285297185" rx="3.35247735234946" ry="2.1930414851830236" fill="rgb(242,82,199)"/><ellipse vector-effect="non-scaling-stroke" cx="20.43274909963975" cy="44.637762285297185" rx="3.3524773523494567" ry="2.1930414851830236" fill="rgb(242,82,199)"/></g><g><path d=" M 527.396 45.537 C 527.962 43.586 528.277 42.589 527.737 39.82 C 526.632 34.212 523.954 30.176 533.049 26.033 C 534.975 24.903 536.543 23.252 537.57 21.269 C 538.775 18.816 542.118 17.351 545.057 18.24 C 547.403 18.95 548.472 18.106 550.162 17.674 C 551.061 17.449 555.798 16.82 559.042 20.874 C 561.846 24.379 563.338 25.925 566.358 27.138 C 569.567 28.433 572.299 31.21 570.628 36.576 C 569.567 39.991 568.938 40.467 569.729 42.265 C 570.331 43.631 573.441 53.23 565.801 55.747 C 562.628 56.798 562.835 55.396 559.554 58.713 C 555.78 62.524 546.927 63.584 543.017 61.319 C 537.858 58.335 539.152 58.398 535.755 58.263 C 529.76 58.012 525.383 52.448 527.396 45.528 L 527.396 45.537 Z " fill-rule="evenodd" fill="rgb(227,17,76)"/><clipPath id="_clipPath_VltX0YJqLXj9DtG1PnASk9tjyuGdyYz4"><path d=" M 527.396 45.537 C 527.962 43.586 528.277 42.589 527.737 39.82 C 526.632 34.212 523.954 30.176 533.049 26.033 C 534.975 24.903 536.543 23.252 537.57 21.269 C 538.775 18.816 542.118 17.351 545.057 18.24 C 547.403 18.95 548.472 18.106 550.162 17.674 C 551.061 17.449 555.798 16.82 559.042 20.874 C 561.846 24.379 563.338 25.925 566.358 27.138 C 569.567 28.433 572.299 31.21 570.628 36.576 C 569.567 39.991 568.938 40.467 569.729 42.265 C 570.331 43.631 573.441 53.23 565.801 55.747 C 562.628 56.798 562.835 55.396 559.554 58.713 C 555.78 62.524 546.927 63.584 543.017 61.319 C 537.858 58.335 539.152 58.398 535.755 58.263 C 529.76 58.012 525.383 52.448 527.396 45.528 L 527.396 45.537 Z " fill-rule="evenodd" fill="rgb(255,255,255)"/></clipPath><g clip-path="url(#_clipPath_VltX0YJqLXj9DtG1PnASk9tjyuGdyYz4)"><g><path d=" M 529.023 44.539 C 529.589 42.598 529.903 41.6 529.364 38.823 C 528.25 33.223 525.58 29.188 534.676 25.044 C 536.602 23.914 538.169 22.263 539.197 20.281 C 540.401 17.818 543.745 16.362 546.684 17.252 C 549.03 17.953 550.099 17.108 551.789 16.685 C 552.679 16.461 557.424 15.832 560.669 19.876 C 563.473 23.381 564.965 24.936 567.985 26.15 C 571.194 27.444 573.926 30.212 572.254 35.578 C 571.194 38.993 570.556 39.479 571.356 41.267 C 571.958 42.633 575.068 52.233 567.428 54.749 C 564.255 55.801 564.462 54.408 561.181 57.715 C 557.406 61.526 548.553 62.596 544.644 60.322 C 539.485 57.338 540.779 57.41 537.381 57.266 C 531.386 57.023 527.009 51.451 529.023 44.539 Z " fill-rule="evenodd" fill="rgb(239,34,92)"/></g></g><path d=" M 554.108 18.968 C 554.881 19.049 557.218 19.211 558.215 22.348 C 558.826 24.307 556.822 24.388 556.058 22.671 C 555.64 21.794 554.884 21.123 553.964 20.811 C 551.852 20.065 552.769 18.843 554.108 18.968 Z  M 567.347 29.233 C 567.823 29.304 569.279 29.484 569.819 32.037 C 570.151 33.628 568.902 33.655 568.47 32.252 C 568.274 31.592 567.821 31.039 567.212 30.716 C 565.909 30.059 566.511 29.098 567.347 29.233 Z  M 565.621 28.433 C 565.891 28.478 566.071 28.738 566.017 28.999 C 565.972 29.268 565.72 29.448 565.46 29.403 C 565.214 29.337 565.058 29.096 565.1 28.845 C 565.142 28.593 565.367 28.415 565.621 28.433 Z " fill-rule="evenodd" fill="rgb(245,117,153)"/><radialGradient id="_rgradient_2" fx="0.5" fy="0.5" cx="0.5" cy="0.5" r="1" gradientTransform="matrix(9.851,0,0,10.012,553.398,33.691)" gradientUnits="userSpaceOnUse"><stop offset="0%" stop-opacity="1" style="stop-color:rgb(29,29,29)"/><stop offset="100%" stop-opacity="1" style="stop-color:rgb(0,0,0)"/></radialGradient><ellipse vector-effect="non-scaling-stroke" cx="558.323157358067" cy="38.69677693832273" rx="4.925355466722522" ry="5.006246341176002" fill="url(#_rgradient_2)"/><path d=" M 558.323 32.936 C 558.323 34.49 558.656 37.079 559.285 37.717 C 559.914 38.355 562.458 38.706 563.995 38.706 C 562.467 38.706 559.914 39.038 559.285 39.676 C 558.656 40.306 558.323 42.903 558.323 44.458 C 558.323 42.903 557.991 40.315 557.361 39.676 C 556.732 39.038 554.189 38.697 552.652 38.697 C 554.18 38.697 556.732 38.355 557.361 37.717 C 557.991 37.088 558.323 34.499 558.323 32.936 Z " fill-rule="evenodd" fill="rgb(255,255,255)"/><radialGradient id="_rgradient_3" fx="0.5" fy="0.5" cx="0.5" cy="0.5" r="1" gradientTransform="matrix(9.851,0,0,10.012,534.344,33.691)" gradientUnits="userSpaceOnUse"><stop offset="0%" stop-opacity="1" style="stop-color:rgb(29,29,29)"/><stop offset="100%" stop-opacity="1" style="stop-color:rgb(0,0,0)"/></radialGradient><ellipse vector-effect="non-scaling-stroke" cx="539.2688624868047" cy="38.69677693832273" rx="4.925355466722522" ry="5.006246341176002" fill="url(#_rgradient_3)"/><path d=" M 539.269 32.936 C 539.269 34.49 539.601 37.079 540.231 37.717 C 540.86 38.355 543.403 38.706 544.94 38.706 C 543.403 38.706 540.86 39.038 540.231 39.676 C 539.601 40.306 539.269 42.903 539.269 44.458 C 539.269 42.903 538.927 40.315 538.307 39.676 C 537.678 39.038 535.134 38.697 533.598 38.697 C 535.125 38.697 537.678 38.355 538.307 37.717 C 538.936 37.088 539.269 34.499 539.269 32.936 Z " fill-rule="evenodd" fill="rgb(255,255,255)"/><path d=" M 555.132 43.883 L 555.312 44.072 L 555.312 44.161 C 555.317 44.319 555.299 44.476 555.258 44.629 C 555.105 45.136 554.797 45.582 554.377 45.905 C 553.736 46.459 552.981 46.867 552.166 47.1 C 551.739 47.254 551.3 47.374 550.854 47.46 L 550.692 47.496 C 550.398 47.552 550.101 47.597 549.803 47.631 L 549.56 47.649 L 549.308 47.667 L 549.012 47.685 C 548.838 47.693 548.664 47.693 548.49 47.685 L 548.203 47.685 L 547.475 47.622 L 547.295 47.595 C 547.084 47.565 546.875 47.529 546.666 47.487 L 546.432 47.433 C 545.975 47.325 545.525 47.189 545.084 47.029 C 544.868 46.939 544.635 46.84 544.419 46.732 L 544.176 46.597 C 543.799 46.385 543.443 46.135 543.116 45.851 C 542.905 45.652 542.718 45.429 542.558 45.186 C 542.358 44.856 542.258 44.475 542.271 44.09 L 542.271 44.072 L 542.451 43.892 L 542.63 44.072 C 542.637 44.126 542.649 44.181 542.666 44.233 L 542.729 44.413 C 542.853 44.675 543.038 44.903 543.268 45.078 L 543.475 45.231 C 543.925 45.528 544.428 45.707 544.94 45.86 L 545.47 45.995 L 545.695 46.04 C 546.01 46.105 546.328 46.156 546.648 46.193 C 546.72 46.193 546.783 46.211 546.855 46.22 L 547.214 46.247 L 547.592 46.274 L 548.257 46.31 L 548.517 46.31 L 548.787 46.318 L 549.515 46.318 C 549.827 46.315 550.139 46.3 550.45 46.274 L 550.683 46.256 C 551.234 46.202 551.781 46.112 552.319 45.986 C 552.867 45.849 553.398 45.65 553.901 45.393 L 554.09 45.267 C 554.306 45.132 554.503 44.961 554.665 44.755 C 554.813 44.566 554.912 44.344 554.953 44.107 L 554.953 44.072 L 555.132 43.892 L 555.132 43.883 Z  M 557.047 28.361 L 560.516 29.313 L 560.921 29.628 L 560.993 30.149 L 560.669 30.572 L 560.157 30.644 L 556.687 29.691 L 556.283 29.367 L 556.211 28.846 L 556.535 28.424 C 556.705 28.406 556.876 28.316 557.047 28.361 Z  M 541.057 28.424 L 541.381 28.837 L 541.309 29.367 L 540.905 29.682 L 537.426 30.644 L 536.923 30.572 L 536.599 30.158 L 536.671 29.637 L 537.076 29.313 L 540.545 28.361 L 541.057 28.424 Z " fill="rgb(46,13,25)"/><ellipse vector-effect="non-scaling-stroke" cx="564.5697304408627" cy="44.637762273183284" rx="3.3524773523494105" ry="2.1930414851830236" fill="rgb(242,82,199)"/><ellipse vector-effect="non-scaling-stroke" cx="533.0672287787049" cy="44.637762273183284" rx="3.3524773523494105" ry="2.1930414851830236" fill="rgb(242,82,199)"/></g></g><path d=" M 366.119 47.3 L 366.119 47.3 L 366.119 47.3 Q 366.119 45.654 364.954 44.735 L 364.954 44.735 L 364.954 44.735 Q 363.789 43.816 360.861 42.832 L 360.861 42.832 L 360.861 42.832 Q 357.932 41.849 356.072 40.93 L 356.072 40.93 L 356.072 40.93 Q 350.023 37.959 350.023 32.764 L 350.023 32.764 L 350.023 32.764 Q 350.023 30.178 351.53 28.2 L 351.53 28.2 L 351.53 28.2 Q 353.037 26.223 355.795 25.122 L 355.795 25.122 L 355.795 25.122 Q 358.552 24.021 361.994 24.021 L 361.994 24.021 L 361.994 24.021 Q 365.35 24.021 368.011 25.218 L 368.011 25.218 L 368.011 25.218 Q 370.672 26.415 372.147 28.628 L 372.147 28.628 L 372.147 28.628 Q 373.622 30.84 373.622 33.683 L 373.622 33.683 L 366.141 33.683 L 366.141 33.683 Q 366.141 31.781 364.976 30.733 L 364.976 30.733 L 364.976 30.733 Q 363.811 29.686 361.823 29.686 L 361.823 29.686 L 361.823 29.686 Q 359.813 29.686 358.648 30.573 L 358.648 30.573 L 358.648 30.573 Q 357.483 31.46 357.483 32.828 L 357.483 32.828 L 357.483 32.828 Q 357.483 34.025 358.766 34.998 L 358.766 34.998 L 358.766 34.998 Q 360.048 35.971 363.276 37.007 L 363.276 37.007 L 363.276 37.007 Q 366.504 38.044 368.577 39.241 L 368.577 39.241 L 368.577 39.241 Q 373.622 42.148 373.622 47.257 L 373.622 47.257 L 373.622 47.257 Q 373.622 51.34 370.544 53.67 L 370.544 53.67 L 370.544 53.67 Q 367.466 56 362.101 56 L 362.101 56 L 362.101 56 Q 358.317 56 355.249 54.643 L 355.249 54.643 L 355.249 54.643 Q 352.182 53.285 350.632 50.923 L 350.632 50.923 L 350.632 50.923 Q 349.082 48.561 349.082 45.483 L 349.082 45.483 L 356.607 45.483 L 356.607 45.483 Q 356.607 47.984 357.9 49.17 L 357.9 49.17 L 357.9 49.17 Q 359.193 50.357 362.101 50.357 L 362.101 50.357 L 362.101 50.357 Q 363.96 50.357 365.04 49.555 L 365.04 49.555 L 365.04 49.555 Q 366.119 48.754 366.119 47.3 Z  M 401.903 24.449 L 401.903 30.242 L 392.561 30.242 L 392.561 55.572 L 385.058 55.572 L 385.058 30.242 L 375.888 30.242 L 375.888 24.449 L 401.903 24.449 Z  M 421.975 24.449 L 429.478 24.449 L 429.478 44.82 L 429.478 44.82 Q 429.478 48.283 428.003 50.816 L 428.003 50.816 L 428.003 50.816 Q 426.528 53.349 423.771 54.675 L 423.771 54.675 L 423.771 54.675 Q 421.013 56 417.251 56 L 417.251 56 L 417.251 56 Q 411.565 56 408.294 53.05 L 408.294 53.05 L 408.294 53.05 Q 405.024 50.1 404.96 44.97 L 404.96 44.97 L 404.96 24.449 L 412.505 24.449 L 412.505 45.12 L 412.505 45.12 Q 412.634 50.228 417.251 50.228 L 417.251 50.228 L 417.251 50.228 Q 419.581 50.228 420.778 48.946 L 420.778 48.946 L 420.778 48.946 Q 421.975 47.663 421.975 44.778 L 421.975 44.778 L 421.975 24.449 Z  M 444.398 55.572 L 434.159 55.572 L 434.159 24.449 L 444.185 24.449 L 444.185 24.449 Q 448.31 24.449 451.602 26.319 L 451.602 26.319 L 451.602 26.319 Q 454.894 28.19 456.743 31.599 L 456.743 31.599 L 456.743 31.599 Q 458.592 35.009 458.614 39.241 L 458.614 39.241 L 458.614 40.673 L 458.614 40.673 Q 458.614 44.949 456.807 48.337 L 456.807 48.337 L 456.807 48.337 Q 455.001 51.725 451.72 53.638 L 451.72 53.638 L 451.72 53.638 Q 448.439 55.551 444.398 55.572 L 444.398 55.572 Z  M 444.185 30.242 L 441.662 30.242 L 441.662 49.801 L 444.27 49.801 L 444.27 49.801 Q 447.498 49.801 449.229 47.503 L 449.229 47.503 L 449.229 47.503 Q 450.961 45.205 450.961 40.673 L 450.961 40.673 L 450.961 39.327 L 450.961 39.327 Q 450.961 34.816 449.229 32.529 L 449.229 32.529 L 449.229 32.529 Q 447.498 30.242 444.185 30.242 L 444.185 30.242 Z  M 470.456 24.449 L 470.456 55.572 L 462.974 55.572 L 462.974 24.449 L 470.456 24.449 Z  M 502.028 39.22 L 502.028 40.652 L 502.028 40.652 Q 502.028 45.205 500.34 48.711 L 500.34 48.711 L 500.34 48.711 Q 498.651 52.216 495.541 54.108 L 495.541 54.108 L 495.541 54.108 Q 492.431 56 488.455 56 L 488.455 56 L 488.455 56 Q 484.479 56 481.4 54.172 L 481.4 54.172 L 481.4 54.172 Q 478.322 52.345 476.602 48.946 L 476.602 48.946 L 476.602 48.946 Q 474.881 45.547 474.795 41.144 L 474.795 41.144 L 474.795 39.391 L 474.795 39.391 Q 474.795 34.816 476.473 31.321 L 476.473 31.321 L 476.473 31.321 Q 478.151 27.826 481.283 25.924 L 481.283 25.924 L 481.283 25.924 Q 484.414 24.021 488.412 24.021 L 488.412 24.021 L 488.412 24.021 Q 492.366 24.021 495.466 25.902 L 495.466 25.902 L 495.466 25.902 Q 498.565 27.784 500.286 31.257 L 500.286 31.257 L 500.286 31.257 Q 502.007 34.731 502.028 39.22 L 502.028 39.22 Z  M 494.397 40.78 L 494.397 39.348 L 494.397 39.348 Q 494.397 34.709 492.847 32.305 L 492.847 32.305 L 492.847 32.305 Q 491.298 29.9 488.412 29.9 L 488.412 29.9 L 488.412 29.9 Q 482.769 29.9 482.448 38.365 L 482.448 38.365 L 482.427 40.652 L 482.427 40.652 Q 482.427 45.226 483.944 47.685 L 483.944 47.685 L 483.944 47.685 Q 485.462 50.143 488.455 50.143 L 488.455 50.143 L 488.455 50.143 Q 491.298 50.143 492.837 47.727 L 492.837 47.727 L 492.837 47.727 Q 494.376 45.312 494.397 40.78 L 494.397 40.78 Z  M 299.426 45.034 L 306.886 45.034 L 306.886 45.034 Q 306.736 48.283 305.133 50.774 L 305.133 50.774 L 305.133 50.774 Q 303.53 53.264 300.634 54.632 L 300.634 54.632 L 300.634 54.632 Q 297.737 56 294.018 56 L 294.018 56 L 294.018 56 Q 287.883 56 284.356 52.003 L 284.356 52.003 L 284.356 52.003 Q 280.829 48.005 280.829 40.716 L 280.829 40.716 L 280.829 39.177 L 280.829 39.177 Q 280.829 34.603 282.421 31.172 L 282.421 31.172 L 282.421 31.172 Q 284.014 27.741 287.006 25.87 L 287.006 25.87 L 287.006 25.87 Q 289.999 24 293.932 24 L 293.932 24 L 293.932 24 Q 299.597 24 303.038 26.982 L 303.038 26.982 L 303.038 26.982 Q 306.48 29.964 306.95 35.201 L 306.95 35.201 L 299.469 35.201 L 299.469 35.201 Q 299.383 32.358 298.036 31.118 L 298.036 31.118 L 298.036 31.118 Q 296.69 29.878 293.932 29.878 L 293.932 29.878 L 293.932 29.878 Q 291.132 29.878 289.828 31.973 L 289.828 31.973 L 289.828 31.973 Q 288.524 34.068 288.46 38.664 L 288.46 38.664 L 288.46 40.866 L 288.46 40.866 Q 288.46 45.846 289.71 47.984 L 289.71 47.984 L 289.71 47.984 Q 290.961 50.122 294.018 50.122 L 294.018 50.122 L 294.018 50.122 Q 296.604 50.122 297.972 48.903 L 297.972 48.903 L 297.972 48.903 Q 299.34 47.685 299.426 45.034 L 299.426 45.034 Z  M 328.155 45.034 L 335.616 45.034 L 335.616 45.034 Q 335.466 48.283 333.863 50.774 L 333.863 50.774 L 333.863 50.774 Q 332.26 53.264 329.363 54.632 L 329.363 54.632 L 329.363 54.632 Q 326.467 56 322.747 56 L 322.747 56 L 322.747 56 Q 316.612 56 313.085 52.003 L 313.085 52.003 L 313.085 52.003 Q 309.558 48.005 309.558 40.716 L 309.558 40.716 L 309.558 39.177 L 309.558 39.177 Q 309.558 34.603 311.151 31.172 L 311.151 31.172 L 311.151 31.172 Q 312.743 27.741 315.736 25.87 L 315.736 25.87 L 315.736 25.87 Q 318.728 24 322.662 24 L 322.662 24 L 322.662 24 Q 328.326 24 331.768 26.982 L 331.768 26.982 L 331.768 26.982 Q 335.209 29.964 335.68 35.201 L 335.68 35.201 L 328.198 35.201 L 328.198 35.201 Q 328.113 32.358 326.766 31.118 L 326.766 31.118 L 326.766 31.118 Q 325.419 29.878 322.662 29.878 L 322.662 29.878 L 322.662 29.878 Q 319.861 29.878 318.557 31.973 L 318.557 31.973 L 318.557 31.973 Q 317.254 34.068 317.189 38.664 L 317.189 38.664 L 317.189 40.866 L 317.189 40.866 Q 317.189 45.846 318.44 47.984 L 318.44 47.984 L 318.44 47.984 Q 319.69 50.122 322.747 50.122 L 322.747 50.122 L 322.747 50.122 Q 325.334 50.122 326.702 48.903 L 326.702 48.903 L 326.702 48.903 Q 328.07 47.685 328.155 45.034 L 328.155 45.034 Z  M 90.475 24.449 L 90.475 49.801 L 103.535 49.801 L 103.535 55.572 L 82.972 55.572 L 82.972 24.449 L 90.475 24.449 Z  M 126.6 55.572 L 124.783 49.758 L 114.501 49.758 L 112.706 55.572 L 104.69 55.572 L 116.105 24.449 L 123.159 24.449 L 134.659 55.572 L 126.6 55.572 Z  M 119.632 33.17 L 116.297 43.965 L 122.988 43.965 L 119.632 33.17 Z  M 153.983 55.572 L 148.489 44.585 L 144.428 44.585 L 144.428 55.572 L 136.925 55.572 L 136.925 24.449 L 149.173 24.449 L 149.173 24.449 Q 154.71 24.449 157.831 26.907 L 157.831 26.907 L 157.831 26.907 Q 160.952 29.365 160.952 33.854 L 160.952 33.854 L 160.952 33.854 Q 160.952 37.104 159.637 39.241 L 159.637 39.241 L 159.637 39.241 Q 158.322 41.379 155.522 42.704 L 155.522 42.704 L 162.02 55.252 L 162.02 55.572 L 153.983 55.572 Z  M 144.428 30.242 L 144.428 38.792 L 149.173 38.792 L 149.173 38.792 Q 151.311 38.792 152.39 37.67 L 152.39 37.67 L 152.39 37.67 Q 153.47 36.548 153.47 34.538 L 153.47 34.538 L 153.47 34.538 Q 153.47 32.529 152.38 31.385 L 152.38 31.385 L 152.38 31.385 Q 151.29 30.242 149.173 30.242 L 149.173 30.242 L 144.428 30.242 Z  M 184.978 55.572 L 183.161 49.758 L 172.879 49.758 L 171.084 55.572 L 163.068 55.572 L 174.483 24.449 L 181.537 24.449 L 193.037 55.572 L 184.978 55.572 Z  M 178.01 33.17 L 174.675 43.965 L 181.366 43.965 L 178.01 33.17 Z  M 199.557 24.449 L 205.734 47.108 L 211.934 24.449 L 220.313 24.449 L 209.839 55.572 L 201.63 55.572 L 191.241 24.449 L 199.557 24.449 Z  M 241.881 36.804 L 241.881 42.383 L 230.082 42.383 L 230.082 49.801 L 244.019 49.801 L 244.019 55.572 L 222.579 55.572 L 222.579 24.449 L 244.062 24.449 L 244.062 30.242 L 230.082 30.242 L 230.082 36.804 L 241.881 36.804 Z  M 254.579 24.449 L 254.579 49.801 L 267.64 49.801 L 267.64 55.572 L 247.076 55.572 L 247.076 24.449 L 254.579 24.449 Z " fill="rgb(0,0,0)"/></g></g></svg>