<?xml version="1.0" encoding="UTF-8" standalone="no"?><!-- Generator: Gravit.io --><svg xmlns="http://www.w3.org/2000/svg" xmlns:xlink="http://www.w3.org/1999/xlink" style="isolation:isolate" viewBox="0 0 110 110" width="110pt" height="110pt"><defs><clipPath id="_clipPath_SHlsvQYrWcwfpFHRQ8AqfO6aPCgWA6Y7"><rect width="110" height="110"/></clipPath></defs><g clip-path="url(#_clipPath_SHlsvQYrWcwfpFHRQ8AqfO6aPCgWA6Y7)"><g><g><path d=" M 99.682 36.829 L 99.682 103.16 C 99.682 105.993 97.385 108.29 94.552 108.29 L 29.572 108.29 C 26.969 108.312 24.762 106.379 24.442 103.794 C 24.429 103.583 24.429 103.371 24.442 103.16 L 24.442 21.08 C 24.442 18.247 26.739 15.95 29.572 15.95 L 78.735 15.95 C 79.823 15.95 80.883 16.296 81.761 16.939 C 81.987 17.086 82.194 17.26 82.375 17.452 L 98.092 33.204 C 98.499 33.604 98.834 34.08 99.067 34.606 C 99.448 35.289 99.662 36.05 99.682 36.829 Z " fill="rgb(133,203,248)"/><path d=" M 99.802 56.99 L 48.502 108.29 L 24.562 108.29 L 24.562 100.749 L 24.429 92.199 L 24.562 92.066 L 90.705 25.73 L 98.092 33.202 C 98.499 33.604 98.834 34.08 99.067 34.606 L 99.595 52.835 L 99.802 56.99 Z  M 86.943 21.969 L 24.562 84.35 L 24.442 79.682 L 24.309 74.343 L 81.76 16.892 C 81.987 17.039 82.194 17.205 82.375 17.405 L 86.943 21.969 Z  M 24.309 64.083 L 72.442 15.95 L 77.572 15.95 L 24.309 69.213 L 24.309 64.083 Z " fill="rgb(159,221,255)"/><path d=" M 40.674 34.813 L 38.57 38.674 L 34.689 40.798 L 38.57 42.917 L 40.674 46.783 L 42.791 42.917 L 46.672 40.798 L 42.791 38.674 L 40.674 34.813 Z  M 66.477 24.553 L 65 27.238 L 62.336 28.688 L 65 30.145 L 66.477 32.83 L 67.926 30.145 L 70.611 28.688 L 67.926 27.24 L 66.477 24.553 Z  M 91.732 79.273 L 90.737 81.103 L 88.907 82.093 L 90.737 83.088 L 91.732 84.911 L 92.721 83.088 L 94.55 82.093 L 92.721 81.104 L 91.732 79.273 Z " fill="rgb(255,255,255)"/><path d=" M 79.162 16.003 L 79.162 36.523 L 99.682 36.523 L 79.162 16.003 Z " fill="rgb(255,239,184)"/><path d=" M 99.015 31.547 L 84.205 16.739 C 82.6 15.133 80.422 14.234 78.152 14.24 L 27.982 14.24 C 25.149 14.24 22.852 16.537 22.852 19.37 L 22.852 104.87 C 22.852 107.703 25.149 110 27.982 110 L 96.382 110 C 99.215 110 101.512 107.703 101.512 104.87 L 101.512 37.599 C 101.518 35.33 100.62 33.152 99.015 31.547 L 99.015 31.547 Z  M 96.602 33.958 C 96.849 34.198 97.064 34.459 97.257 34.74 L 82.702 34.74 C 81.758 34.74 80.992 33.974 80.992 33.03 L 80.992 18.515 C 81.272 18.703 81.539 18.922 81.779 19.163 L 96.602 33.958 Z  M 96.382 106.58 L 27.982 106.58 C 27.042 106.58 26.272 105.811 26.272 104.87 L 26.272 19.37 C 26.272 18.43 27.042 17.66 27.982 17.66 L 77.572 17.66 L 77.572 33.05 C 77.572 35.883 79.869 38.18 82.702 38.18 L 98.092 38.18 L 98.092 104.87 C 98.092 105.811 97.322 106.58 96.382 106.58 Z " fill="rgb(141,108,159)"/><path d=" M 31.402 92.9 C 30.462 92.9 29.692 93.67 29.692 94.61 L 29.692 98.03 C 29.692 98.971 30.462 99.74 31.402 99.74 C 32.343 99.74 33.112 98.971 33.112 98.03 L 33.112 94.61 C 33.112 93.67 32.343 92.9 31.402 92.9 Z  M 39.952 92.9 C 39.012 92.9 38.242 93.67 38.242 94.61 L 38.242 98.03 C 38.242 98.971 39.012 99.74 39.952 99.74 C 40.893 99.74 41.662 98.971 41.662 98.03 L 41.662 94.61 C 41.662 93.67 40.893 92.9 39.952 92.9 Z  M 48.502 92.9 C 47.561 92.9 46.792 93.67 46.792 94.61 L 46.792 98.03 C 46.792 98.971 47.561 99.74 48.502 99.74 C 49.442 99.74 50.212 98.971 50.212 98.03 L 50.212 94.61 C 50.212 93.67 49.442 92.9 48.502 92.9 Z  M 57.052 92.9 C 56.111 92.9 55.342 93.67 55.342 94.61 L 55.342 98.03 C 55.342 98.971 56.111 99.74 57.052 99.74 C 57.992 99.74 58.762 98.971 58.762 98.03 L 58.762 94.61 C 58.762 93.67 57.992 92.9 57.052 92.9 Z  M 65.602 92.9 C 64.661 92.9 63.892 93.67 63.892 94.61 L 63.892 98.03 C 63.892 98.971 64.661 99.74 65.602 99.74 C 66.542 99.74 67.312 98.971 67.312 98.03 L 67.312 94.61 C 67.312 93.67 66.542 92.9 65.602 92.9 Z  M 74.152 92.9 C 73.211 92.9 72.442 93.67 72.442 94.61 L 72.442 98.03 C 72.442 98.971 73.211 99.74 74.152 99.74 C 75.092 99.74 75.862 98.971 75.862 98.03 L 75.862 94.61 C 75.862 93.67 75.092 92.9 74.152 92.9 Z  M 82.702 92.9 C 81.761 92.9 80.992 93.67 80.992 94.61 L 80.992 98.03 C 80.992 98.971 81.761 99.74 82.702 99.74 C 83.642 99.74 84.412 98.971 84.412 98.03 L 84.412 94.61 C 84.412 93.67 83.642 92.9 82.702 92.9 Z  M 91.252 92.9 C 90.311 92.9 89.542 93.67 89.542 94.61 L 89.542 98.03 C 89.542 98.971 90.311 99.74 91.252 99.74 C 92.192 99.74 92.962 98.971 92.962 98.03 L 92.962 94.61 C 92.962 93.67 92.192 92.9 91.252 92.9 Z " fill="rgb(141,108,159)"/><path d=" M 45.082 62.12 L 79.282 62.12 C 80.222 62.12 80.992 61.351 80.992 60.41 C 80.992 59.47 80.222 58.7 79.282 58.7 L 45.082 58.7 C 44.142 58.7 43.372 59.47 43.372 60.41 C 43.372 61.351 44.142 62.12 45.082 62.12 Z  M 45.082 68.96 L 79.282 68.96 C 80.222 68.96 80.992 68.191 80.992 67.25 C 80.992 66.31 80.222 65.54 79.282 65.54 L 45.082 65.54 C 44.142 65.54 43.372 66.31 43.372 67.25 C 43.372 68.191 44.142 68.96 45.082 68.96 Z  M 79.282 72.38 L 45.082 72.38 C 44.142 72.38 43.372 73.15 43.372 74.09 C 43.372 75.031 44.142 75.8 45.082 75.8 L 79.282 75.8 C 80.222 75.8 80.992 75.031 80.992 74.09 C 80.992 73.15 80.222 72.38 79.282 72.38 Z  M 62.182 79.22 L 45.082 79.22 C 44.142 79.22 43.372 79.99 43.372 80.93 C 43.372 81.871 44.142 82.64 45.082 82.64 L 62.182 82.64 C 63.122 82.64 63.892 81.871 63.892 80.93 C 63.892 79.99 63.122 79.22 62.182 79.22 Z " fill="rgb(255,255,255)"/></g><path d=" M 89.456 48.074 C 89.451 48.051 89.436 48.03 89.429 48.006 C 89.412 47.964 89.399 47.92 89.377 47.881 C 89.363 47.856 89.341 47.834 89.322 47.81 C 89.298 47.778 89.278 47.743 89.25 47.716 C 89.227 47.692 89.197 47.675 89.171 47.655 C 89.142 47.631 89.116 47.606 89.083 47.587 C 89.083 47.587 89.083 47.587 89.083 47.587 C 89.083 47.587 89.083 47.587 89.083 47.587 L 79.438 42.034 C 79.19 41.89 78.885 41.89 78.637 42.034 L 68.992 47.587 C 68.992 47.587 68.992 47.587 68.992 47.587 C 68.992 47.587 68.992 47.587 68.992 47.587 C 68.959 47.606 68.933 47.633 68.903 47.655 C 68.878 47.675 68.848 47.692 68.824 47.716 C 68.797 47.743 68.777 47.778 68.753 47.81 C 68.734 47.834 68.712 47.856 68.698 47.881 C 68.675 47.92 68.661 47.964 68.646 48.006 C 68.637 48.028 68.624 48.051 68.618 48.074 C 68.6 48.142 68.591 48.212 68.591 48.284 L 68.591 58.832 L 60.553 63.46 L 60.553 42.824 C 60.553 42.753 60.544 42.683 60.526 42.615 C 60.52 42.591 60.505 42.571 60.498 42.547 C 60.481 42.505 60.469 42.46 60.447 42.422 C 60.432 42.396 60.41 42.374 60.391 42.35 C 60.367 42.319 60.347 42.284 60.32 42.256 C 60.296 42.232 60.266 42.216 60.241 42.196 C 60.211 42.172 60.185 42.146 60.152 42.128 C 60.152 42.128 60.152 42.128 60.152 42.128 C 60.152 42.128 60.152 42.128 60.152 42.128 L 50.508 36.574 C 50.259 36.431 49.954 36.431 49.706 36.574 L 40.061 42.128 C 40.061 42.128 40.061 42.128 40.061 42.128 C 40.061 42.128 40.061 42.128 40.061 42.128 C 40.028 42.146 40.002 42.174 39.973 42.196 C 39.947 42.216 39.918 42.232 39.894 42.256 C 39.866 42.284 39.846 42.319 39.822 42.35 C 39.804 42.374 39.781 42.396 39.767 42.422 C 39.745 42.46 39.73 42.505 39.715 42.547 C 39.706 42.569 39.693 42.591 39.688 42.615 C 39.669 42.683 39.66 42.753 39.66 42.824 L 39.66 75.861 C 39.66 76.148 39.815 76.415 40.063 76.558 L 59.354 87.665 C 59.397 87.689 59.443 87.704 59.487 87.72 C 59.507 87.728 59.527 87.74 59.549 87.746 C 59.617 87.764 59.685 87.774 59.755 87.774 C 59.825 87.774 59.893 87.764 59.961 87.746 C 59.979 87.74 59.996 87.729 60.014 87.724 C 60.062 87.707 60.11 87.691 60.154 87.667 L 79.446 76.56 C 79.696 76.417 79.848 76.152 79.848 75.863 L 79.848 65.316 L 89.09 59.994 C 89.341 59.85 89.493 59.586 89.493 59.297 L 89.493 48.284 C 89.484 48.212 89.473 48.142 89.456 48.074 Z  M 59.74 74.936 L 51.717 70.396 L 60.143 65.545 C 60.143 65.545 60.143 65.545 60.143 65.545 L 69.387 60.224 L 77.417 64.847 L 71.526 68.21 L 59.74 74.936 Z  M 78.23 54.303 L 78.23 63.46 L 74.854 61.516 L 70.191 58.832 L 70.191 49.674 L 73.567 51.618 L 78.23 54.303 Z  M 79.034 43.657 L 87.068 48.284 L 79.034 52.911 L 71 48.284 L 79.034 43.657 Z  M 54.277 67.07 L 50.901 69.014 L 50.901 48.843 L 55.564 46.158 L 58.941 44.215 L 58.941 64.383 L 54.277 67.07 Z  M 50.097 38.2 L 58.131 42.826 L 50.097 47.453 L 42.063 42.826 L 50.097 38.2 Z  M 41.254 44.215 L 44.631 46.158 L 49.294 48.843 L 49.294 70.402 C 49.294 70.402 49.294 70.404 49.294 70.404 C 49.294 70.404 49.294 70.406 49.294 70.406 C 49.294 70.437 49.303 70.466 49.307 70.496 C 49.312 70.534 49.312 70.575 49.323 70.613 C 49.323 70.613 49.323 70.615 49.323 70.615 C 49.332 70.646 49.349 70.676 49.362 70.705 C 49.377 70.738 49.386 70.775 49.404 70.806 C 49.404 70.806 49.404 70.808 49.406 70.808 C 49.423 70.836 49.447 70.86 49.467 70.885 C 49.489 70.915 49.507 70.944 49.533 70.97 C 49.533 70.97 49.535 70.972 49.535 70.972 C 49.557 70.994 49.586 71.011 49.612 71.031 C 49.641 71.053 49.667 71.079 49.698 71.097 C 49.7 71.097 49.7 71.097 49.702 71.099 C 49.704 71.099 49.704 71.101 49.706 71.101 L 58.944 76.328 L 58.944 85.576 L 41.254 75.396 L 41.254 44.215 Z  M 78.23 75.396 L 60.546 85.578 L 60.546 76.328 L 73.642 68.852 L 78.23 66.233 L 78.23 75.396 Z  M 87.875 58.832 L 79.837 63.46 L 79.837 54.303 L 84.501 51.618 L 87.877 49.674 L 87.877 58.832 L 87.875 58.832 Z " fill="rgb(255,45,32)"/><g><path d=" M 43.451 14.093 C 46.014 9.762 44.52 5.401 44.52 5.401 C 44.52 5.401 43.255 0 35.492 0 C 16.252 0 8.488 47.256 8.488 47.256 C 8.488 47.256 11.188 51.307 28.741 51.307 C 46.293 51.307 48.994 47.256 48.994 47.256 C 45.618 29.931 36.305 11.292 36.305 11.292 C 36.305 11.292 33.92 6.751 37.722 6.751 C 40.423 6.751 40.892 13.502 40.892 13.502" fill="rgb(103,58,183)"/><path d=" M 43.593 13.502 C 43.593 14.244 42.985 14.852 42.243 14.852 C 41.5 14.852 40.892 14.244 40.892 13.502 C 40.892 12.759 41.5 12.152 42.243 12.152 C 42.985 12.152 43.593 12.759 43.593 13.502 Z " fill="rgb(103,58,183)"/><mask id="_mask_nvj0iQm6XOemJHDprd4gry4gnrORzzOC" x="-200%" y="-200%" width="400%" height="400%"><rect x="-200%" y="-200%" width="400%" height="400%" style="fill:white;"/><path d=" M 8.488 48.607 C 8.488 48.607 12.539 51.307 28.741 51.307 C 28.741 51.307 48.994 48.607 48.994 48.607" fill="black" stroke="none"/></mask><path d=" M 8.488 48.607 C 8.488 48.607 12.539 51.307 28.741 51.307 C 28.741 51.307 48.994 48.607 48.994 48.607" fill="none" mask="url(#_mask_nvj0iQm6XOemJHDprd4gry4gnrORzzOC)" vector-effect="non-scaling-stroke" stroke-width="8" stroke="rgb(206,147,216)" stroke-linejoin="miter" stroke-linecap="round" stroke-miterlimit="4"/><path d=" M 8.488 48.607 C 8.488 48.607 12.539 51.307 28.741 51.307 C 28.741 51.307 48.994 48.607 48.994 48.607" fill="none"/><path d=" M 24.485 17.552 L 25.797 20.216 L 28.741 20.643 L 26.616 22.722 L 27.115 25.653 L 24.485 24.272 L 21.852 25.653 L 22.354 22.721 L 20.223 20.643 L 23.166 20.216 L 24.485 17.552 Z  M 19.495 29.704 L 20.814 32.373 L 23.757 32.795 L 21.625 34.874 L 22.128 37.805 L 19.495 36.424 L 16.863 37.805 L 17.364 34.873 L 15.239 32.796 L 18.182 32.375 L 19.495 29.704 Z  M 33.466 31.729 C 33.466 28.274 36.072 25.458 39.41 25.062 C 38.402 24.562 37.292 24.302 36.167 24.303 C 32.066 24.306 28.743 27.629 28.741 31.729 C 28.741 35.827 32.069 39.155 36.167 39.155 C 37.332 39.155 38.435 38.881 39.41 38.395 C 36.072 38.001 33.466 35.186 33.466 31.729 Z " fill="rgb(253,216,53)"/><path d=" M 43.593 13.502 C 43.593 14.244 42.985 14.852 42.243 14.852 C 41.5 14.852 40.892 14.244 40.892 13.502 C 40.892 12.759 41.5 12.152 42.243 12.152 C 42.985 12.152 43.593 12.759 43.593 13.502 Z " fill="rgb(103,58,183)"/><path d=" M 36.305 11.292 C 36.305 11.292 33.92 6.751 37.728 6.751 C 40.428 6.751 40.898 13.502 40.898 13.502 C 40.898 14.251 41.499 14.852 42.248 14.852 C 42.761 14.85 43.228 14.555 43.45 14.092 L 43.455 14.092 C 44.331 12.604 44.838 10.928 44.932 9.204 C 44.763 5.933 41.468 2.7 38.192 2.7 C 34.838 2.7 34.142 4.726 34.142 6.751 C 34.142 9.404 36.637 12.874 37.706 14.251 C 36.842 12.374 36.305 11.292 36.305 11.292 Z " fill="rgb(49,27,146)"/></g></g></g></svg>