<?xml version="1.0" standalone="no"?><!-- Generator: Gravit.io --><svg xmlns="http://www.w3.org/2000/svg" xmlns:xlink="http://www.w3.org/1999/xlink" style="isolation:isolate" viewBox="0 0 1200 250" width="1200" height="250"><defs><clipPath id="_clipPath_c2bPLe8diU6i8Xdv8bZ2z2GDYUYx22bY"><rect width="1200" height="250"/></clipPath></defs><g clip-path="url(#_clipPath_c2bPLe8diU6i8Xdv8bZ2z2GDYUYx22bY)"><g id="PS_LogoKlein_links_Schriftzug_2_Zeilen"><g id="Group"><g id="Group"><path d=" M 439.122 31.031 C 412.95 28.334 339.629 70.089 417.345 185.965" fill="none" vector-effect="non-scaling-stroke" stroke-width="5.994" stroke="rgb(0,117,191)" stroke-linejoin="miter" stroke-linecap="round" stroke-miterlimit="4"/><path d=" M 343.225 31.031 C 371.994 118.138 367.299 191.16 320.949 185.965" fill="none" vector-effect="non-scaling-stroke" stroke-width="5.994" stroke="rgb(0,117,191)" stroke-linejoin="miter" stroke-linecap="round" stroke-miterlimit="4"/><path d=" M 451.809 65.394 C 360.406 158.295 332.836 172.679 296.874 73.086" fill="none" vector-effect="non-scaling-stroke" stroke-width="5.994" stroke="rgb(0,117,191)" stroke-linejoin="miter" stroke-linecap="round" stroke-miterlimit="4"/><path d=" M 448.812 136.218 C 432.13 113.842 344.324 -5.63 305.865 151.502" fill="none" vector-effect="non-scaling-stroke" stroke-width="5.994" stroke="rgb(0,117,191)" stroke-linejoin="miter" stroke-linecap="round" stroke-miterlimit="4"/><rect x="331.238" y="65.394" width="86.108" height="86.108" transform="matrix(1,0,0,1,0,0)" fill="rgb(0,117,191)"/></g><g id="Group"><clipPath id="_clipPath_3F2IZiH2jUgrerxfr4TV5fgilHz8SHyg"><rect x="331.238" y="65.594" width="86.108" height="86.108" transform="matrix(1,0,0,1,0,0)" fill="rgb(255,255,255)"/></clipPath><g clip-path="url(#_clipPath_3F2IZiH2jUgrerxfr4TV5fgilHz8SHyg)"><path d=" M 439.122 31.131 C 412.95 28.434 339.629 70.189 417.345 186.065" fill="none" vector-effect="non-scaling-stroke" stroke-width="5.994" stroke="rgb(255,255,255)" stroke-linejoin="miter" stroke-linecap="round" stroke-miterlimit="4"/></g><clipPath id="_clipPath_M5upEIkXr9undUYX8ZJQ5GQvHTfz5rmq"><rect x="331.238" y="65.594" width="86.108" height="86.108" transform="matrix(1,0,0,1,0,0)" fill="rgb(255,255,255)"/></clipPath><g clip-path="url(#_clipPath_M5upEIkXr9undUYX8ZJQ5GQvHTfz5rmq)"><path d=" M 343.225 31.131 C 371.994 118.238 367.299 191.26 320.949 186.065" fill="none" vector-effect="non-scaling-stroke" stroke-width="5.994" stroke="rgb(255,255,255)" stroke-linejoin="miter" stroke-linecap="round" stroke-miterlimit="4"/></g><clipPath id="_clipPath_J4EoGSrRlYSeiReSM6EOPNMkU54iYdkf"><rect x="331.238" y="65.594" width="86.108" height="86.108" transform="matrix(1,0,0,1,0,0)" fill="rgb(255,255,255)"/></clipPath><g clip-path="url(#_clipPath_J4EoGSrRlYSeiReSM6EOPNMkU54iYdkf)"><path d=" M 451.809 65.594 C 360.406 158.495 332.836 172.879 296.874 73.286" fill="none" vector-effect="non-scaling-stroke" stroke-width="5.994" stroke="rgb(255,255,255)" stroke-linejoin="miter" stroke-linecap="round" stroke-miterlimit="4"/></g><clipPath id="_clipPath_AiIHhKtauCQ1DxTuMcX5HOUhNu8u6R2E"><rect x="331.238" y="65.594" width="86.108" height="86.108" transform="matrix(1,0,0,1,0,0)" fill="rgb(255,255,255)"/></clipPath><g clip-path="url(#_clipPath_AiIHhKtauCQ1DxTuMcX5HOUhNu8u6R2E)"><path d=" M 448.812 136.318 C 432.13 113.942 344.324 -5.53 305.865 151.602" fill="none" vector-effect="non-scaling-stroke" stroke-width="5.994" stroke="rgb(255,255,255)" stroke-linejoin="miter" stroke-linecap="round" stroke-miterlimit="4"/></g></g><line x1="296.774" y1="120.935" x2="451.809" y2="93.764" vector-effect="non-scaling-stroke" stroke-width="5.994" stroke="rgb(242,142,0)" stroke-linejoin="miter" stroke-linecap="round" stroke-miterlimit="4"/></g><g id="Group"><path d=" M 471.188 124.231 L 479.679 124.231 C 486.871 124.231 488.17 129.126 488.17 136.718 C 488.17 145.808 486.272 149.904 479.379 149.904 L 471.188 149.904 L 471.188 124.231 Z  M 476.282 146.108 L 478.58 146.108 C 482.176 146.108 482.875 143.81 482.875 136.818 C 482.875 131.024 482.376 128.027 478.48 128.027 L 476.282 128.027 L 476.282 146.108 Z " fill="rgb(0,0,0)"/><path d=" M 491.067 124.031 L 496.061 124.031 L 496.061 128.227 L 491.067 128.227 L 491.067 124.031 Z  M 491.067 130.624 L 496.061 130.624 L 496.061 150.004 L 491.067 150.004 L 491.067 130.624 Z " fill="rgb(0,0,0)"/><path d=" M 513.543 130.624 L 513.543 149.005 C 513.543 154.099 511.245 156.597 505.451 156.597 C 501.256 156.597 498.858 154.699 498.858 151.402 L 503.653 151.402 C 503.653 152.002 503.953 152.601 504.452 152.901 C 504.952 153.2 505.451 153.4 506.15 153.4 C 508.148 153.4 508.848 151.902 508.848 149.904 L 508.848 147.307 L 508.748 147.307 C 507.749 148.705 506.15 149.704 504.652 149.704 C 500.656 149.704 498.758 147.007 498.758 139.914 C 498.758 135.419 499.458 130.025 504.852 130.025 C 506.25 130.025 507.949 130.624 508.848 132.722 L 508.947 132.722 L 508.947 130.525 L 513.543 130.525 L 513.543 130.624 Z  M 506.15 145.908 C 508.248 145.908 508.848 143.611 508.848 140.414 C 508.848 135.719 508.248 133.921 506.25 133.921 C 504.053 133.921 503.653 135.719 503.653 140.913 C 503.653 143.511 504.053 145.908 506.15 145.908 Z " fill="rgb(0,0,0)"/><path d=" M 516.739 124.031 L 521.734 124.031 L 521.734 128.227 L 516.739 128.227 L 516.739 124.031 Z  M 516.739 130.624 L 521.734 130.624 L 521.734 150.004 L 516.739 150.004 L 516.739 130.624 Z " fill="rgb(0,0,0)"/><path d=" M 526.029 125.03 L 531.024 125.03 L 531.024 130.525 L 533.921 130.525 L 533.921 133.921 L 531.024 133.921 L 531.024 144.41 C 531.024 145.908 531.323 146.507 532.822 146.507 C 533.221 146.507 533.621 146.507 533.921 146.408 L 533.921 149.904 C 532.822 150.004 531.823 150.104 530.724 150.104 C 526.828 150.104 526.129 148.905 526.129 145.009 L 526.129 133.921 L 523.632 133.921 L 523.632 130.525 L 526.129 130.525 L 526.129 125.03 L 526.029 125.03 Z " fill="rgb(0,0,0)"/><path d=" M 535.719 136.518 L 535.719 136.019 C 535.719 131.523 538.815 130.025 542.512 130.025 C 548.405 130.025 549.504 132.423 549.504 135.919 L 549.504 146.208 C 549.504 148.006 549.604 148.805 550.103 149.904 L 545.309 149.904 C 545.009 149.304 544.809 148.505 544.709 147.906 L 544.609 147.906 C 543.411 149.904 542.012 150.403 539.715 150.403 C 536.218 150.403 535.02 147.406 535.02 144.909 C 535.02 141.313 536.518 139.815 539.914 138.916 L 542.711 138.116 C 544.21 137.717 544.709 137.117 544.709 135.819 C 544.709 134.32 544.11 133.421 542.412 133.421 C 540.913 133.421 540.114 134.42 540.114 135.919 L 540.114 136.418 L 535.719 136.418 L 535.719 136.518 Z  M 544.809 140.314 C 544.11 140.814 543.311 141.113 542.711 141.313 C 540.713 141.713 539.914 142.711 539.914 144.41 C 539.914 145.908 540.414 147.107 541.812 147.107 C 543.111 147.107 544.909 146.208 544.909 144.11 L 544.909 140.314 L 544.809 140.314 Z " fill="rgb(0,0,0)"/><path d=" M 552.701 124.231 L 557.695 124.231 L 557.695 149.904 L 552.701 149.904 L 552.701 124.231 Z " fill="rgb(0,0,0)"/><path d=" M 565.187 141.013 L 565.187 142.512 C 565.187 144.809 565.787 147.007 567.585 147.007 C 569.283 147.007 569.882 145.708 570.182 143.411 L 574.677 143.411 C 574.477 147.906 572.38 150.403 567.685 150.403 C 560.492 150.403 560.193 144.909 560.193 140.014 C 560.193 134.82 561.192 130.025 567.884 130.025 C 573.678 130.025 574.977 133.921 574.977 139.815 L 574.977 140.913 L 565.187 140.913 L 565.187 141.013 Z  M 570.182 138.116 C 570.082 135.12 569.682 133.521 567.685 133.521 C 565.687 133.521 565.087 135.619 565.087 137.417 L 565.087 138.216 L 570.182 138.216 L 570.182 138.116 Z " fill="rgb(0,0,0)"/><path d=" M 591.559 124.231 L 591.559 134.52 L 591.659 134.52 L 598.152 124.231 L 603.746 124.231 L 596.753 135.22 L 604.545 149.904 L 598.751 149.904 L 593.457 139.415 L 591.559 142.312 L 591.559 149.904 L 586.365 149.904 L 586.365 124.231 L 591.559 124.231 Z " fill="rgb(0,0,0)"/><path d=" M 612.137 130.125 C 618.131 130.025 619.729 133.621 619.729 140.314 C 619.729 146.907 617.831 150.503 612.137 150.503 C 606.143 150.603 604.545 147.007 604.545 140.314 C 604.445 133.621 606.443 130.125 612.137 130.125 Z  M 612.137 147.107 C 614.135 147.107 614.834 145.109 614.834 140.314 C 614.834 135.519 614.235 133.521 612.137 133.521 C 609.74 133.521 609.44 136.318 609.44 140.314 C 609.44 144.21 609.64 147.107 612.137 147.107 Z " fill="rgb(0,0,0)"/><path d=" M 622.126 130.624 L 626.921 130.624 L 626.921 132.622 L 627.021 132.622 C 628.32 130.824 629.818 130.125 631.916 130.125 C 634.213 130.125 635.812 131.224 636.411 133.222 L 636.511 133.222 C 637.31 131.124 639.108 130.125 641.406 130.125 C 644.702 130.125 646.201 132.223 646.201 135.919 L 646.201 150.004 L 641.206 150.004 L 641.206 136.518 C 641.206 134.92 640.706 134.021 639.308 134.021 C 637.71 134.021 636.711 135.12 636.711 137.317 L 636.711 150.004 L 631.716 150.004 L 631.716 136.518 C 631.716 134.92 631.217 134.021 629.818 134.021 C 628.22 134.021 627.221 135.12 627.221 137.317 L 627.221 150.004 L 622.226 150.004 L 622.226 130.624 L 622.126 130.624 Z " fill="rgb(0,0,0)"/><path d=" M 649.097 130.624 L 653.892 130.624 L 653.892 132.622 L 653.992 132.622 C 655.291 130.824 656.789 130.125 658.887 130.125 C 661.185 130.125 662.783 131.224 663.382 133.222 L 663.482 133.222 C 664.281 131.124 666.079 130.125 668.377 130.125 C 671.673 130.125 673.172 132.223 673.172 135.919 L 673.172 150.004 L 668.177 150.004 L 668.177 136.518 C 668.177 134.92 667.678 134.021 666.279 134.021 C 664.681 134.021 663.682 135.12 663.682 137.317 L 663.682 150.004 L 658.687 150.004 L 658.687 136.518 C 658.687 134.92 658.188 134.021 656.789 134.021 C 655.191 134.021 654.192 135.12 654.192 137.317 L 654.192 150.004 L 649.197 150.004 L 649.197 130.624 L 649.097 130.624 Z " fill="rgb(0,0,0)"/><path d=" M 685.958 147.706 L 685.958 147.706 C 684.859 149.604 683.061 150.503 680.963 150.503 C 677.867 150.503 676.069 148.805 676.069 145.009 L 676.069 130.624 L 681.063 130.624 L 681.063 144.01 C 681.063 145.908 681.663 146.707 683.161 146.707 C 684.859 146.707 685.758 145.708 685.758 143.511 L 685.758 130.724 L 690.753 130.724 L 690.753 150.104 L 685.958 150.104 L 685.958 147.706 L 685.958 147.706 Z " fill="rgb(0,0,0)"/><path d=" M 693.75 130.624 L 698.545 130.624 L 698.545 132.922 L 698.644 132.922 C 699.643 131.024 701.441 130.125 703.539 130.125 C 706.636 130.125 708.434 131.823 708.434 135.619 L 708.434 150.004 L 703.439 150.004 L 703.439 136.618 C 703.439 134.72 702.84 133.921 701.342 133.921 C 699.643 133.921 698.744 134.92 698.744 137.117 L 698.744 150.004 L 693.75 150.004 L 693.75 130.624 L 693.75 130.624 Z " fill="rgb(0,0,0)"/><path d=" M 711.431 124.031 L 716.425 124.031 L 716.425 128.227 L 711.431 128.227 L 711.431 124.031 Z  M 711.431 130.624 L 716.425 130.624 L 716.425 150.004 L 711.431 150.004 L 711.431 130.624 Z " fill="rgb(0,0,0)"/><path d=" M 724.517 124.231 L 724.517 137.817 L 724.617 137.817 L 729.611 130.624 L 735.105 130.624 L 729.511 138.216 L 735.905 149.904 L 730.41 149.904 L 726.315 141.912 L 724.517 144.21 L 724.517 149.904 L 719.522 149.904 L 719.522 124.231 L 724.517 124.231 Z " fill="rgb(0,0,0)"/><path d=" M 737.003 136.518 L 737.003 136.019 C 737.003 131.523 740.1 130.025 743.796 130.025 C 749.69 130.025 750.789 132.423 750.789 135.919 L 750.789 146.208 C 750.789 148.006 750.889 148.805 751.388 149.904 L 746.593 149.904 C 746.293 149.304 746.094 148.505 745.994 147.906 L 745.994 147.906 C 744.795 149.904 743.397 150.403 741.099 150.403 C 737.603 150.403 736.404 147.406 736.404 144.909 C 736.404 141.313 737.902 139.815 741.299 138.916 L 744.096 138.116 C 745.594 137.717 746.094 137.117 746.094 135.819 C 746.094 134.32 745.494 133.421 743.796 133.421 C 742.298 133.421 741.499 134.42 741.499 135.919 L 741.499 136.418 L 737.003 136.418 L 737.003 136.518 Z  M 746.094 140.314 C 745.394 140.814 744.595 141.113 743.996 141.313 C 741.998 141.713 741.199 142.711 741.199 144.41 C 741.199 145.908 741.698 147.107 743.097 147.107 C 744.495 147.107 746.194 146.208 746.194 144.11 L 746.194 140.314 L 746.094 140.314 Z " fill="rgb(0,0,0)"/><path d=" M 755.084 125.03 L 760.079 125.03 L 760.079 130.525 L 762.976 130.525 L 762.976 133.921 L 760.079 133.921 L 760.079 144.41 C 760.079 145.908 760.378 146.507 761.877 146.507 C 762.276 146.507 762.676 146.507 762.976 146.408 L 762.976 149.904 C 761.877 150.004 760.878 150.104 759.779 150.104 C 755.883 150.104 755.184 148.905 755.184 145.009 L 755.184 133.921 L 752.687 133.921 L 752.687 130.525 L 755.184 130.525 L 755.184 125.03 L 755.084 125.03 Z " fill="rgb(0,0,0)"/><path d=" M 764.874 124.031 L 769.868 124.031 L 769.868 128.227 L 764.874 128.227 L 764.874 124.031 Z  M 764.874 130.624 L 769.868 130.624 L 769.868 150.004 L 764.874 150.004 L 764.874 130.624 Z " fill="rgb(0,0,0)"/><path d=" M 779.957 130.125 C 785.951 130.025 787.549 133.621 787.549 140.314 C 787.549 146.907 785.651 150.503 779.957 150.503 C 773.964 150.603 772.366 147.007 772.366 140.314 C 772.266 133.621 774.264 130.125 779.957 130.125 Z  M 779.957 147.107 C 781.955 147.107 782.655 145.109 782.655 140.314 C 782.655 135.519 782.055 133.521 779.957 133.521 C 777.56 133.521 777.26 136.318 777.26 140.314 C 777.26 144.21 777.46 147.107 779.957 147.107 Z " fill="rgb(0,0,0)"/><path d=" M 789.947 130.624 L 794.742 130.624 L 794.742 132.922 L 794.841 132.922 C 795.84 131.024 797.638 130.125 799.736 130.125 C 802.833 130.125 804.631 131.823 804.631 135.619 L 804.631 150.004 L 799.636 150.004 L 799.636 136.618 C 799.636 134.72 799.037 133.921 797.539 133.921 C 795.84 133.921 794.941 134.92 794.941 137.117 L 794.941 150.004 L 789.947 150.004 L 789.947 130.624 L 789.947 130.624 Z " fill="rgb(0,0,0)"/><path d=" M 811.324 143.611 L 811.324 144.21 C 811.324 145.908 812.223 147.007 813.921 147.007 C 815.419 147.007 816.418 146.208 816.418 144.709 C 816.418 143.411 815.619 142.911 814.62 142.512 L 811.124 141.213 C 808.427 140.214 807.028 138.516 807.028 135.819 C 807.028 132.622 809.026 130.025 814.121 130.025 C 818.616 130.025 820.714 132.023 820.714 135.519 L 820.714 136.318 L 816.219 136.318 C 816.219 134.42 815.619 133.421 814.021 133.421 C 812.722 133.421 811.723 134.121 811.723 135.519 C 811.723 136.418 812.223 137.217 813.921 137.817 L 816.918 138.816 C 820.015 139.815 821.213 141.413 821.213 144.31 C 821.213 148.405 818.216 150.403 814.021 150.403 C 808.427 150.403 806.929 148.006 806.929 144.21 L 806.929 143.511 L 811.324 143.511 L 811.324 143.611 Z " fill="rgb(0,0,0)"/><path d=" M 821.913 130.624 L 826.907 130.624 L 829.205 144.41 L 829.305 144.41 L 831.702 130.624 L 837.096 130.624 L 839.693 144.41 L 839.793 144.41 L 842.091 130.624 L 846.886 130.624 L 842.69 150.004 L 836.896 150.004 L 834.299 136.218 L 834.199 136.218 L 831.802 150.004 L 826.008 150.004 L 821.913 130.624 Z " fill="rgb(0,0,0)"/><path d=" M 852.38 141.013 L 852.38 142.512 C 852.38 144.809 852.979 147.007 854.777 147.007 C 856.476 147.007 857.075 145.708 857.375 143.411 L 861.87 143.411 C 861.67 147.906 859.572 150.403 854.877 150.403 C 847.685 150.403 847.385 144.909 847.385 140.014 C 847.385 134.82 848.384 130.025 855.077 130.025 C 860.871 130.025 862.169 133.921 862.169 139.815 L 862.169 140.913 L 852.38 140.913 L 852.38 141.013 Z  M 857.375 138.116 C 857.275 135.12 856.875 133.521 854.877 133.521 C 852.879 133.521 852.28 135.619 852.28 137.417 L 852.28 138.216 L 857.375 138.216 L 857.375 138.116 Z " fill="rgb(0,0,0)"/><path d=" M 878.951 130.624 L 878.951 149.005 C 878.951 154.099 876.654 156.597 870.86 156.597 C 866.665 156.597 864.267 154.699 864.267 151.402 L 869.062 151.402 C 869.062 152.002 869.362 152.601 869.861 152.901 C 870.361 153.2 870.86 153.4 871.559 153.4 C 873.557 153.4 874.257 151.902 874.257 149.904 L 874.257 147.307 L 874.157 147.307 C 873.158 148.705 871.559 149.704 870.061 149.704 C 866.065 149.704 864.167 147.007 864.167 139.914 C 864.167 135.419 864.867 130.025 870.261 130.025 C 871.659 130.025 873.357 130.624 874.257 132.722 L 874.356 132.722 L 874.356 130.525 L 878.951 130.525 L 878.951 130.624 Z  M 871.459 145.908 C 873.557 145.908 874.157 143.611 874.157 140.414 C 874.157 135.719 873.557 133.921 871.559 133.921 C 869.362 133.921 868.962 135.719 868.962 140.913 C 868.962 143.511 869.362 145.908 871.459 145.908 Z " fill="rgb(0,0,0)"/><path d=" M 886.344 141.013 L 886.344 142.512 C 886.344 144.809 886.943 147.007 888.741 147.007 C 890.439 147.007 891.039 145.708 891.338 143.411 L 895.833 143.411 C 895.634 147.906 893.536 150.403 888.841 150.403 C 881.649 150.403 881.349 144.909 881.349 140.014 C 881.349 134.82 882.348 130.025 889.041 130.025 C 894.834 130.025 896.133 133.921 896.133 139.815 L 896.133 140.913 L 886.344 140.913 L 886.344 141.013 Z  M 891.438 138.116 C 891.338 135.12 890.939 133.521 888.941 133.521 C 886.943 133.521 886.344 135.619 886.344 137.417 L 886.344 138.216 L 891.438 138.216 L 891.438 138.116 Z " fill="rgb(0,0,0)"/><path d=" M 903.226 144.31 L 903.226 149.904 L 898.431 149.904 L 898.431 144.31 L 903.226 144.31 Z " fill="rgb(0,117,191)"/></g><g id="Group"><path d=" M 471.188 81.677 L 477.781 81.677 C 479.978 81.677 485.772 81.677 485.772 89.069 C 485.772 93.864 482.676 96.561 478.38 96.561 L 474.484 96.561 L 474.484 107.449 L 471.288 107.449 L 471.288 81.677 L 471.188 81.677 Z  M 474.384 93.864 L 478.18 93.864 C 480.478 93.864 482.376 92.265 482.376 88.869 C 482.376 86.072 481.077 84.274 477.881 84.274 L 474.285 84.274 L 474.285 93.864 L 474.384 93.864 Z " fill="rgb(242,142,0)"/><path d=" M 488.17 88.07 L 491.166 88.07 L 491.166 90.967 L 491.266 90.967 C 492.165 89.169 493.264 87.571 495.462 87.571 C 496.061 87.571 496.461 87.67 496.76 87.77 L 496.76 90.767 C 496.461 90.767 496.161 90.667 495.162 90.667 C 493.664 90.667 491.166 92.066 491.166 95.262 L 491.166 107.449 L 488.17 107.449 L 488.17 88.07 Z " fill="rgb(242,142,0)"/><path d=" M 504.552 87.571 C 510.146 87.571 511.445 92.265 511.445 97.76 C 511.445 103.154 510.046 107.949 504.552 107.949 C 498.958 107.949 497.66 103.254 497.66 97.76 C 497.56 92.265 498.958 87.571 504.552 87.571 Z  M 508.348 97.66 C 508.348 93.464 507.749 89.868 504.452 89.868 C 501.356 89.868 500.756 93.464 500.756 97.66 C 500.756 101.855 501.356 105.451 504.452 105.451 C 507.649 105.451 508.348 101.855 508.348 97.66 Z " fill="rgb(242,142,0)"/><path d=" M 534.121 88.27 C 534.121 85.573 533.122 83.675 530.125 83.675 C 527.428 83.675 525.929 85.073 525.929 87.87 C 525.929 95.062 538.016 90.767 538.016 100.157 C 538.016 106.051 533.621 107.749 530.025 107.749 C 524.031 107.749 522.233 104.652 522.233 99.158 L 525.43 99.158 C 525.43 102.055 525.63 105.152 530.225 105.152 C 532.722 105.152 534.72 103.354 534.72 100.656 C 534.72 93.364 522.633 97.56 522.633 88.17 C 522.633 85.772 523.632 81.077 530.125 81.077 C 535.02 81.077 537.217 83.475 537.317 88.27 L 534.121 88.27 L 534.121 88.27 Z " fill="rgb(242,142,0)"/><path d=" M 540.713 93.864 C 540.713 89.468 542.611 87.571 547.206 87.571 C 553.1 87.571 553.1 91.067 553.1 93.065 L 553.1 103.853 C 553.1 104.652 553.1 105.351 553.999 105.351 C 554.399 105.351 554.599 105.252 554.698 105.152 L 554.698 107.349 C 554.499 107.349 553.7 107.549 552.9 107.549 C 551.702 107.549 550.303 107.549 550.203 105.052 L 550.103 105.052 C 549.104 106.75 547.306 107.849 545.508 107.849 C 541.912 107.849 540.214 105.651 540.214 102.255 C 540.214 99.558 541.413 97.66 543.81 96.96 L 547.906 95.762 C 550.103 95.062 550.103 94.463 550.103 92.865 C 550.103 91.067 549.005 90.068 547.007 90.068 C 543.71 90.068 543.71 93.165 543.71 93.864 L 543.71 94.064 L 540.713 94.064 L 540.713 93.864 Z  M 550.004 96.861 C 548.905 98.059 546.208 98.259 544.909 99.158 C 543.91 99.757 543.411 100.557 543.411 102.255 C 543.411 104.153 544.11 105.551 546.108 105.551 C 548.106 105.551 550.004 103.853 550.004 101.855 L 550.004 96.861 L 550.004 96.861 Z " fill="rgb(242,142,0)"/><path d=" M 556.796 81.677 L 559.793 81.677 L 559.793 107.349 L 556.796 107.349 L 556.796 81.677 Z " fill="rgb(242,142,0)"/><path d=" M 565.787 98.059 C 565.787 101.056 565.787 105.451 569.483 105.451 C 572.38 105.451 572.779 102.455 572.779 100.956 L 575.776 100.956 C 575.776 103.054 574.577 107.749 569.283 107.749 C 564.588 107.749 562.59 104.452 562.59 97.859 C 562.59 93.065 563.489 87.471 569.483 87.471 C 575.376 87.471 575.876 92.565 575.876 96.761 L 575.876 97.959 L 565.787 97.959 L 565.787 98.059 Z  M 572.779 95.662 L 572.779 94.663 C 572.779 92.465 572.08 89.968 569.483 89.968 C 566.286 89.968 565.986 93.864 565.986 94.963 L 565.986 95.662 L 572.779 95.662 Z " fill="rgb(242,142,0)"/><path d=" M 587.064 93.664 C 587.064 91.267 586.464 89.868 584.267 89.868 C 583.268 89.868 581.17 90.168 581.17 92.865 C 581.17 95.162 583.568 95.562 585.965 96.361 C 588.263 97.16 590.66 97.959 590.66 101.755 C 590.66 105.851 588.063 107.749 584.467 107.749 C 577.874 107.749 577.874 102.854 577.874 100.956 L 580.87 100.956 C 580.87 103.254 581.47 105.451 584.467 105.451 C 585.466 105.451 587.663 104.952 587.663 102.255 C 587.663 99.658 585.266 99.158 582.968 98.359 C 580.671 97.56 578.173 96.861 578.173 92.865 C 578.173 89.269 580.97 87.571 584.367 87.571 C 589.961 87.571 590.161 91.466 590.26 93.764 L 587.064 93.764 L 587.064 93.664 Z " fill="rgb(242,142,0)"/><path d=" M 607.242 81.677 L 611.438 81.677 L 618.33 107.349 L 615.034 107.349 L 613.236 100.257 L 605.045 100.257 L 603.147 107.349 L 599.85 107.349 L 607.242 81.677 Z  M 605.644 97.66 L 612.537 97.66 L 609.24 85.273 L 609.14 85.273 L 605.644 97.66 Z " fill="rgb(242,142,0)"/><path d=" M 632.116 88.769 C 632.016 86.072 630.917 83.775 627.82 83.775 C 623.425 83.775 622.826 88.569 622.826 94.563 C 622.826 100.557 623.425 105.351 627.82 105.351 C 632.216 105.351 632.515 100.057 632.515 96.661 L 627.421 96.661 L 627.421 94.064 L 635.412 94.064 L 635.412 107.449 L 633.015 107.449 L 633.015 103.953 L 632.915 103.953 C 632.216 106.151 630.218 107.949 627.421 107.949 C 620.728 107.949 619.529 101.556 619.529 94.563 C 619.529 88.07 620.728 81.177 627.82 81.177 C 635.212 81.177 635.412 87.471 635.412 88.769 L 632.116 88.769 L 632.116 88.769 Z " fill="rgb(242,142,0)"/></g></g><rect x="0" y="210.909" width="1200" height="40.909" transform="matrix(1,0,0,1,0,0)" fill="rgb(235,235,235)"/><path d=" M 575.669 239.153 L 575.669 240.638 L 567.71 240.638 L 567.71 226.36 L 575.669 226.36 L 575.669 227.835 L 569.37 227.835 L 569.37 232.434 L 575.288 232.434 L 575.288 233.899 L 569.37 233.899 L 569.37 239.153 L 575.669 239.153 L 575.669 239.153 Z  M 582.485 236.018 L 577.69 236.018 L 577.69 234.534 L 582.485 234.534 L 582.485 236.018 L 582.485 236.018 Z  M 591.381 227.64 L 591.381 227.64 L 591.381 227.64 Q 589.028 227.64 587.666 229.207 L 587.666 229.207 L 587.666 229.207 Q 586.303 230.774 586.303 233.499 L 586.303 233.499 L 586.303 233.499 Q 586.303 236.302 587.617 237.83 L 587.617 237.83 L 587.617 237.83 Q 588.93 239.358 591.362 239.358 L 591.362 239.358 L 591.362 239.358 Q 592.856 239.358 594.77 238.821 L 594.77 238.821 L 594.77 240.276 L 594.77 240.276 Q 593.286 240.833 591.108 240.833 L 591.108 240.833 L 591.108 240.833 Q 587.954 240.833 586.24 238.919 L 586.24 238.919 L 586.24 238.919 Q 584.526 237.005 584.526 233.479 L 584.526 233.479 L 584.526 233.479 Q 584.526 231.272 585.351 229.612 L 585.351 229.612 L 585.351 229.612 Q 586.176 227.952 587.734 227.054 L 587.734 227.054 L 587.734 227.054 Q 589.292 226.155 591.401 226.155 L 591.401 226.155 L 591.401 226.155 Q 593.647 226.155 595.327 226.975 L 595.327 226.975 L 594.624 228.401 L 594.624 228.401 Q 593.003 227.64 591.381 227.64 Z  M 606.88 235.276 L 606.88 235.276 L 606.88 235.276 Q 606.88 237.893 605.561 239.363 L 605.561 239.363 L 605.561 239.363 Q 604.243 240.833 601.919 240.833 L 601.919 240.833 L 601.919 240.833 Q 600.483 240.833 599.37 240.159 L 599.37 240.159 L 599.37 240.159 Q 598.256 239.485 597.651 238.225 L 597.651 238.225 L 597.651 238.225 Q 597.046 236.966 597.046 235.276 L 597.046 235.276 L 597.046 235.276 Q 597.046 232.659 598.354 231.199 L 598.354 231.199 L 598.354 231.199 Q 599.663 229.739 601.987 229.739 L 601.987 229.739 L 601.987 229.739 Q 604.233 229.739 605.556 231.233 L 605.556 231.233 L 605.556 231.233 Q 606.88 232.727 606.88 235.276 Z  M 598.725 235.276 L 598.725 235.276 L 598.725 235.276 Q 598.725 237.327 599.546 238.401 L 599.546 238.401 L 599.546 238.401 Q 600.366 239.475 601.958 239.475 L 601.958 239.475 L 601.958 239.475 Q 603.549 239.475 604.375 238.406 L 604.375 238.406 L 604.375 238.406 Q 605.2 237.337 605.2 235.276 L 605.2 235.276 L 605.2 235.276 Q 605.2 233.235 604.375 232.176 L 604.375 232.176 L 604.375 232.176 Q 603.549 231.116 601.938 231.116 L 601.938 231.116 L 601.938 231.116 Q 600.346 231.116 599.536 232.161 L 599.536 232.161 L 599.536 232.161 Q 598.725 233.206 598.725 235.276 Z  M 624.985 240.638 L 623.364 240.638 L 623.364 233.675 L 623.364 233.675 Q 623.364 232.395 622.817 231.756 L 622.817 231.756 L 622.817 231.756 Q 622.27 231.116 621.118 231.116 L 621.118 231.116 L 621.118 231.116 Q 619.604 231.116 618.881 231.985 L 618.881 231.985 L 618.881 231.985 Q 618.159 232.854 618.159 234.661 L 618.159 234.661 L 618.159 240.638 L 616.538 240.638 L 616.538 233.675 L 616.538 233.675 Q 616.538 232.395 615.991 231.756 L 615.991 231.756 L 615.991 231.756 Q 615.444 231.116 614.282 231.116 L 614.282 231.116 L 614.282 231.116 Q 612.758 231.116 612.05 232.029 L 612.05 232.029 L 612.05 232.029 Q 611.342 232.942 611.342 235.022 L 611.342 235.022 L 611.342 240.638 L 609.721 240.638 L 609.721 229.934 L 611.04 229.934 L 611.303 231.399 L 611.381 231.399 L 611.381 231.399 Q 611.84 230.618 612.675 230.179 L 612.675 230.179 L 612.675 230.179 Q 613.51 229.739 614.546 229.739 L 614.546 229.739 L 614.546 229.739 Q 617.055 229.739 617.827 231.556 L 617.827 231.556 L 617.905 231.556 L 617.905 231.556 Q 618.383 230.716 619.292 230.227 L 619.292 230.227 L 619.292 230.227 Q 620.2 229.739 621.362 229.739 L 621.362 229.739 L 621.362 229.739 Q 623.178 229.739 624.082 230.672 L 624.082 230.672 L 624.082 230.672 Q 624.985 231.604 624.985 233.655 L 624.985 233.655 L 624.985 240.638 L 624.985 240.638 Z  M 643.589 240.638 L 641.967 240.638 L 641.967 233.675 L 641.967 233.675 Q 641.967 232.395 641.421 231.756 L 641.421 231.756 L 641.421 231.756 Q 640.874 231.116 639.721 231.116 L 639.721 231.116 L 639.721 231.116 Q 638.208 231.116 637.485 231.985 L 637.485 231.985 L 637.485 231.985 Q 636.762 232.854 636.762 234.661 L 636.762 234.661 L 636.762 240.638 L 635.141 240.638 L 635.141 233.675 L 635.141 233.675 Q 635.141 232.395 634.594 231.756 L 634.594 231.756 L 634.594 231.756 Q 634.047 231.116 632.885 231.116 L 632.885 231.116 L 632.885 231.116 Q 631.362 231.116 630.654 232.029 L 630.654 232.029 L 630.654 232.029 Q 629.946 232.942 629.946 235.022 L 629.946 235.022 L 629.946 240.638 L 628.325 240.638 L 628.325 229.934 L 629.643 229.934 L 629.907 231.399 L 629.985 231.399 L 629.985 231.399 Q 630.444 230.618 631.279 230.179 L 631.279 230.179 L 631.279 230.179 Q 632.114 229.739 633.149 229.739 L 633.149 229.739 L 633.149 229.739 Q 635.659 229.739 636.43 231.556 L 636.43 231.556 L 636.508 231.556 L 636.508 231.556 Q 636.987 230.716 637.895 230.227 L 637.895 230.227 L 637.895 230.227 Q 638.803 229.739 639.965 229.739 L 639.965 229.739 L 639.965 229.739 Q 641.782 229.739 642.685 230.672 L 642.685 230.672 L 642.685 230.672 Q 643.589 231.604 643.589 233.655 L 643.589 233.655 L 643.589 240.638 L 643.589 240.638 Z  M 651.45 240.833 L 651.45 240.833 L 651.45 240.833 Q 649.077 240.833 647.705 239.388 L 647.705 239.388 L 647.705 239.388 Q 646.333 237.942 646.333 235.374 L 646.333 235.374 L 646.333 235.374 Q 646.333 232.786 647.607 231.263 L 647.607 231.263 L 647.607 231.263 Q 648.881 229.739 651.03 229.739 L 651.03 229.739 L 651.03 229.739 Q 653.042 229.739 654.214 231.062 L 654.214 231.062 L 654.214 231.062 Q 655.385 232.386 655.385 234.554 L 655.385 234.554 L 655.385 235.579 L 648.012 235.579 L 648.012 235.579 Q 648.061 237.464 648.964 238.44 L 648.964 238.44 L 648.964 238.44 Q 649.868 239.417 651.508 239.417 L 651.508 239.417 L 651.508 239.417 Q 653.237 239.417 654.926 238.694 L 654.926 238.694 L 654.926 240.14 L 654.926 240.14 Q 654.067 240.511 653.3 240.672 L 653.3 240.672 L 653.3 240.672 Q 652.534 240.833 651.45 240.833 Z  M 651.01 231.097 L 651.01 231.097 L 651.01 231.097 Q 649.721 231.097 648.955 231.936 L 648.955 231.936 L 648.955 231.936 Q 648.188 232.776 648.051 234.261 L 648.051 234.261 L 653.647 234.261 L 653.647 234.261 Q 653.647 232.727 652.964 231.912 L 652.964 231.912 L 652.964 231.912 Q 652.28 231.097 651.01 231.097 Z  M 663.032 229.739 L 663.032 229.739 L 663.032 229.739 Q 663.745 229.739 664.311 229.856 L 664.311 229.856 L 664.087 231.36 L 664.087 231.36 Q 663.422 231.214 662.915 231.214 L 662.915 231.214 L 662.915 231.214 Q 661.616 231.214 660.693 232.268 L 660.693 232.268 L 660.693 232.268 Q 659.77 233.323 659.77 234.895 L 659.77 234.895 L 659.77 240.638 L 658.149 240.638 L 658.149 229.934 L 659.487 229.934 L 659.672 231.917 L 659.751 231.917 L 659.751 231.917 Q 660.346 230.872 661.186 230.306 L 661.186 230.306 L 661.186 230.306 Q 662.026 229.739 663.032 229.739 Z  M 670.59 240.833 L 670.59 240.833 L 670.59 240.833 Q 668.266 240.833 666.992 239.402 L 666.992 239.402 L 666.992 239.402 Q 665.717 237.972 665.717 235.354 L 665.717 235.354 L 665.717 235.354 Q 665.717 232.669 667.011 231.204 L 667.011 231.204 L 667.011 231.204 Q 668.305 229.739 670.698 229.739 L 670.698 229.739 L 670.698 229.739 Q 671.469 229.739 672.241 229.905 L 672.241 229.905 L 672.241 229.905 Q 673.012 230.071 673.452 230.296 L 673.452 230.296 L 672.954 231.673 L 672.954 231.673 Q 672.417 231.458 671.782 231.316 L 671.782 231.316 L 671.782 231.316 Q 671.147 231.175 670.659 231.175 L 670.659 231.175 L 670.659 231.175 Q 667.397 231.175 667.397 235.335 L 667.397 235.335 L 667.397 235.335 Q 667.397 237.307 668.193 238.362 L 668.193 238.362 L 668.193 238.362 Q 668.989 239.417 670.551 239.417 L 670.551 239.417 L 670.551 239.417 Q 671.889 239.417 673.296 238.841 L 673.296 238.841 L 673.296 240.276 L 673.296 240.276 Q 672.221 240.833 670.59 240.833 Z  M 680.356 240.833 L 680.356 240.833 L 680.356 240.833 Q 677.983 240.833 676.611 239.388 L 676.611 239.388 L 676.611 239.388 Q 675.239 237.942 675.239 235.374 L 675.239 235.374 L 675.239 235.374 Q 675.239 232.786 676.513 231.263 L 676.513 231.263 L 676.513 231.263 Q 677.788 229.739 679.936 229.739 L 679.936 229.739 L 679.936 229.739 Q 681.948 229.739 683.12 231.062 L 683.12 231.062 L 683.12 231.062 Q 684.292 232.386 684.292 234.554 L 684.292 234.554 L 684.292 235.579 L 676.919 235.579 L 676.919 235.579 Q 676.967 237.464 677.871 238.44 L 677.871 238.44 L 677.871 238.44 Q 678.774 239.417 680.415 239.417 L 680.415 239.417 L 680.415 239.417 Q 682.143 239.417 683.833 238.694 L 683.833 238.694 L 683.833 240.14 L 683.833 240.14 Q 682.973 240.511 682.207 240.672 L 682.207 240.672 L 682.207 240.672 Q 681.44 240.833 680.356 240.833 Z  M 679.917 231.097 L 679.917 231.097 L 679.917 231.097 Q 678.628 231.097 677.861 231.936 L 677.861 231.936 L 677.861 231.936 Q 677.094 232.776 676.958 234.261 L 676.958 234.261 L 682.553 234.261 L 682.553 234.261 Q 682.553 232.727 681.87 231.912 L 681.87 231.912 L 681.87 231.912 Q 681.186 231.097 679.917 231.097 Z  M 519.555 240.638 L 518.217 240.638 L 513.374 227.981 L 513.296 227.981 L 513.296 227.981 Q 513.432 229.485 513.432 231.556 L 513.432 231.556 L 513.432 240.638 L 511.899 240.638 L 511.899 226.36 L 514.399 226.36 L 518.921 238.138 L 518.999 238.138 L 523.559 226.36 L 526.04 226.36 L 526.04 240.638 L 524.38 240.638 L 524.38 231.438 L 524.38 231.438 Q 524.38 229.856 524.516 228.001 L 524.516 228.001 L 524.438 228.001 L 519.555 240.638 L 519.555 240.638 Z  M 531.333 229.934 L 531.333 240.638 L 529.712 240.638 L 529.712 229.934 L 531.333 229.934 L 531.333 229.934 Z  M 529.575 227.034 L 529.575 227.034 L 529.575 227.034 Q 529.575 226.477 529.848 226.219 L 529.848 226.219 L 529.848 226.219 Q 530.122 225.96 530.532 225.96 L 530.532 225.96 L 530.532 225.96 Q 530.922 225.96 531.206 226.224 L 531.206 226.224 L 531.206 226.224 Q 531.489 226.487 531.489 227.034 L 531.489 227.034 L 531.489 227.034 Q 531.489 227.581 531.206 227.849 L 531.206 227.849 L 531.206 227.849 Q 530.922 228.118 530.532 228.118 L 530.532 228.118 L 530.532 228.118 Q 530.122 228.118 529.848 227.849 L 529.848 227.849 L 529.848 227.849 Q 529.575 227.581 529.575 227.034 Z  M 539.292 240.833 L 539.292 240.833 L 539.292 240.833 Q 536.919 240.833 535.547 239.388 L 535.547 239.388 L 535.547 239.388 Q 534.174 237.942 534.174 235.374 L 534.174 235.374 L 534.174 235.374 Q 534.174 232.786 535.449 231.263 L 535.449 231.263 L 535.449 231.263 Q 536.723 229.739 538.872 229.739 L 538.872 229.739 L 538.872 229.739 Q 540.883 229.739 542.055 231.062 L 542.055 231.062 L 542.055 231.062 Q 543.227 232.386 543.227 234.554 L 543.227 234.554 L 543.227 235.579 L 535.854 235.579 L 535.854 235.579 Q 535.903 237.464 536.806 238.44 L 536.806 238.44 L 536.806 238.44 Q 537.71 239.417 539.35 239.417 L 539.35 239.417 L 539.35 239.417 Q 541.079 239.417 542.768 238.694 L 542.768 238.694 L 542.768 240.14 L 542.768 240.14 Q 541.909 240.511 541.142 240.672 L 541.142 240.672 L 541.142 240.672 Q 540.376 240.833 539.292 240.833 Z  M 538.852 231.097 L 538.852 231.097 L 538.852 231.097 Q 537.563 231.097 536.797 231.936 L 536.797 231.936 L 536.797 231.936 Q 536.03 232.776 535.893 234.261 L 535.893 234.261 L 541.489 234.261 L 541.489 234.261 Q 541.489 232.727 540.805 231.912 L 540.805 231.912 L 540.805 231.912 Q 540.122 231.097 538.852 231.097 Z  M 547.612 225.442 L 547.612 240.638 L 545.991 240.638 L 545.991 225.442 L 547.612 225.442 L 547.612 225.442 Z  M 555.571 240.833 L 555.571 240.833 L 555.571 240.833 Q 553.198 240.833 551.826 239.388 L 551.826 239.388 L 551.826 239.388 Q 550.454 237.942 550.454 235.374 L 550.454 235.374 L 550.454 235.374 Q 550.454 232.786 551.728 231.263 L 551.728 231.263 L 551.728 231.263 Q 553.003 229.739 555.151 229.739 L 555.151 229.739 L 555.151 229.739 Q 557.163 229.739 558.335 231.062 L 558.335 231.062 L 558.335 231.062 Q 559.506 232.386 559.506 234.554 L 559.506 234.554 L 559.506 235.579 L 552.133 235.579 L 552.133 235.579 Q 552.182 237.464 553.086 238.44 L 553.086 238.44 L 553.086 238.44 Q 553.989 239.417 555.63 239.417 L 555.63 239.417 L 555.63 239.417 Q 557.358 239.417 559.047 238.694 L 559.047 238.694 L 559.047 240.14 L 559.047 240.14 Q 558.188 240.511 557.422 240.672 L 557.422 240.672 L 557.422 240.672 Q 556.655 240.833 555.571 240.833 Z  M 555.131 231.097 L 555.131 231.097 L 555.131 231.097 Q 553.842 231.097 553.076 231.936 L 553.076 231.936 L 553.076 231.936 Q 552.309 232.776 552.172 234.261 L 552.172 234.261 L 557.768 234.261 L 557.768 234.261 Q 557.768 232.727 557.085 231.912 L 557.085 231.912 L 557.085 231.912 Q 556.401 231.097 555.131 231.097 Z " fill-rule="evenodd" fill="rgb(0,0,0)"/></g></svg>